# xmcd
#
# Track frame offsets:
#	150
#	14806
#	27241
#	39688
#	50553
#	59504
#	68993
#	83975
#	101351
#	111982
#	127595
#	140237
#	155603
#	171464
#	198265
#	211635
#	221943
#	238795
#	251531
#	263275
#	278322
#	292984
#	312158
#	329214
#	340662
#
# Disc length: 4750 seconds
#
# Revision: 0
# Processed by: cddbd v1.5.2PL0 Copyright (c) Steve Scherf et al.
# Submitted via: audiograbber 1.82.01
#
DISCID=7a128c19
DTITLE=Jerry Williams - EIGHTIES
DYEAR=213
DGENRE=Rock
TTITLE0=Hot Rock 'n' Roll Band
TTITLE1=Shake, Rattle And Roll
TTITLE2=Makin' Love To You
TTITLE3=Aha-Uhu-Mhm
TTITLE4=Bop-A -Lena
TTITLE5=Wo-Bop Baby
TTITLE6=Crusin' On A Saturday Night
TTITLE7=Baby Jump
TTITLE8=Big Black Chevrolet
TTITLE9=God Bless Rock And Roll
TTITLE10=If I Want My Love
TTITLE11=Blue Moon Of Kentucky
TTITLE12=I'm In Love With An Angel
TTITLE13=Working Class Hero
TTITLE14=Every Now And Then
TTITLE15=Hall Of Mirrors
TTITLE16=It Keeps Rainin'
TTITLE17=Saturday Night Fish Fry
TTITLE18=The Joint Is Jumping
TTITLE19=Mary Lou
TTITLE20=Worrying Kind
TTITLE21=Did I Tell You
TTITLE22=I Want To Know (ft Suzzie Tapper)
TTITLE23=Stop And Let Me Love You
TTITLE24=It Started With A Love
EXTD=Box Jerry Williams
EXTT0=
EXTT1=
EXTT2=
EXTT3=
EXTT4=
EXTT5=
EXTT6=
EXTT7=
EXTT8=
EXTT9=
EXTT10=
EXTT11=
EXTT12=
EXTT13=
EXTT14=
EXTT15=
EXTT16=
EXTT17=
EXTT18=
EXTT19=
EXTT20=
EXTT21=
EXTT22=
EXTT23=
EXTT24=
PLAYORDER=
